<svg width="300" height="256" viewBox="0 0 300 256" fill="none" xmlns="http://www.w3.org/2000/svg">
<g id="IUGen">
<path id="Gear_Lower" d="M259.424 151.525L254.126 161.018C249.13 160.06 244.004 160.06 239.007 161.018L233.709 151.525C233.106 150.433 231.857 149.942 230.694 150.299C223.027 152.773 216.092 156.985 210.32 162.489C209.437 163.336 209.222 164.718 209.825 165.787L215.123 175.281C211.806 179.27 209.243 183.861 207.564 188.83L196.989 188.83C195.783 188.83 194.728 189.7 194.469 190.925C192.703 199.104 192.789 207.483 194.469 215.261C194.728 216.487 195.783 217.356 196.989 217.356L207.585 217.356C209.287 222.303 211.849 226.894 215.145 230.905L209.847 240.377C209.243 241.468 209.437 242.828 210.342 243.675C216.092 249.179 223.027 253.391 230.716 255.865C231.879 256.244 233.128 255.731 233.731 254.639L239.029 245.146C244.026 246.104 249.151 246.104 254.148 245.146L259.446 254.639C260.049 255.731 261.298 256.221 262.461 255.865C270.128 253.391 277.063 249.179 282.835 243.675C283.718 242.828 283.933 241.446 283.33 240.376L278.032 230.883C281.349 226.894 283.912 222.303 285.592 217.333L296.188 217.333C297.394 217.333 298.449 216.464 298.708 215.239C300.474 207.06 300.388 198.681 298.708 190.903C298.449 189.677 297.394 188.808 296.188 188.808L285.592 188.808C283.89 183.861 281.327 179.27 278.032 175.259L283.33 165.765C283.933 164.673 283.74 163.314 282.835 162.467C277.085 156.962 270.15 152.75 262.461 150.277C261.277 149.942 260.027 150.433 259.424 151.525ZM263.796 203.093C263.796 212.921 256.065 220.921 246.567 220.921C237.069 220.921 229.337 212.921 229.337 203.093C229.337 193.265 237.069 185.265 246.567 185.265C256.065 185.265 263.796 193.265 263.796 203.093Z" fill="#78CCED"/>
<path id="Gear_Upper" d="M259.424 1.35138L254.126 10.845C249.13 9.88668 244.004 9.88668 239.007 10.845L233.709 1.35138C233.106 0.259397 231.857 -0.23088 230.694 0.125686C223.027 2.59936 216.092 6.81129 210.32 12.3158C209.437 13.1626 209.222 14.5443 209.825 15.614L215.123 25.1076C211.806 29.0967 209.243 33.6875 207.564 38.6571L196.989 38.6571C195.783 38.6571 194.728 39.5262 194.469 40.7519C192.703 48.9307 192.789 57.31 194.469 65.0875C194.728 66.3132 195.783 67.1824 196.989 67.1824L207.585 67.1824C209.287 72.1297 211.849 76.7205 215.145 80.7319L209.847 90.2032C209.243 91.2951 209.437 92.6546 210.342 93.5014C216.092 99.0059 223.027 103.218 230.716 105.691C231.879 106.07 233.128 105.558 233.731 104.466L239.029 94.9722C244.026 95.9305 249.151 95.9305 254.148 94.9722L259.446 104.466C260.049 105.558 261.298 106.048 262.461 105.691C270.128 103.218 277.063 99.0059 282.835 93.5014C283.718 92.6545 283.933 91.2729 283.33 90.2032L278.032 80.7096C281.349 76.7205 283.912 72.1297 285.592 67.1601L296.188 67.1601C297.394 67.1601 298.449 66.291 298.708 65.0653C300.474 56.8865 300.388 48.5072 298.708 40.7296C298.449 39.5039 297.394 38.6348 296.188 38.6348L285.592 38.6348C283.89 33.6875 281.327 29.0967 278.032 25.0853L283.33 15.5917C283.933 14.4997 283.74 13.1403 282.835 12.2935C277.085 6.78901 270.15 2.57708 262.461 0.103406C261.277 -0.230875 260.027 0.259396 259.424 1.35138ZM263.796 52.9197C263.796 62.7476 256.065 70.748 246.567 70.748C237.069 70.748 229.337 62.7476 229.337 52.9197C229.337 43.0919 237.069 35.0914 246.567 35.0914C256.065 35.0914 263.796 43.0919 263.796 52.9197Z" fill="#78CCED"/>
<path id="Bg_Gear" d="M197.938 153.15L179.95 142.767C181.766 132.975 181.766 122.93 179.95 113.138L197.938 102.755C200.008 101.573 200.937 99.1252 200.261 96.8461C195.574 81.8205 187.593 68.23 177.163 56.9186C175.559 55.1882 172.94 54.7661 170.914 55.9479L152.925 66.3307C145.367 59.8309 136.668 54.8083 127.252 51.5162V30.7927C127.252 28.4292 125.605 26.361 123.282 25.8546C107.785 22.3936 91.9082 22.5625 77.1712 25.8546C74.8487 26.361 73.2019 28.4292 73.2019 30.7927V51.5584C63.8277 54.8927 55.129 59.9153 47.5283 66.3729L29.5821 55.9901C27.513 54.8083 24.9372 55.1882 23.3326 56.9608C12.9027 68.23 4.92195 81.8205 0.234829 96.8883C-0.483019 99.1674 0.488187 101.615 2.55728 102.797L20.5457 113.18C18.73 122.972 18.73 133.017 20.5457 142.809L2.55728 153.192C0.488187 154.374 -0.440792 156.822 0.234829 159.101C4.92195 174.126 12.9027 187.717 23.3326 199.028C24.9372 200.759 27.5553 201.181 29.5821 199.999L47.5705 189.616C55.129 196.116 63.8277 201.139 73.2441 204.431V225.196C73.2441 227.56 74.891 229.628 77.2134 230.135C92.7105 233.596 108.588 233.427 123.325 230.135C125.647 229.628 127.294 227.56 127.294 225.196V204.431C136.668 201.096 145.367 196.074 152.967 189.616L170.956 199.999C173.025 201.181 175.601 200.801 177.205 199.028C187.635 187.759 195.616 174.169 200.303 159.101C200.937 156.779 200.008 154.331 197.938 153.15Z" fill="#1C9ACC"/>
<path id="Bg_Mask" d="M100.229 193.558C136.462 193.558 165.834 164.185 165.834 127.952C165.834 118.208 163.71 108.96 159.899 100.646C149.54 78.0454 126.718 62.3467 100.229 62.3467C73.7398 62.3467 50.9174 78.0454 40.5581 100.646C36.7473 108.96 34.623 118.208 34.623 127.952C34.623 164.185 63.9957 193.558 100.229 193.558Z" fill="white"/>
<path id="Foot" d="M100.228 182.257C130.22 182.257 154.533 157.944 154.533 127.953C154.533 119.887 152.775 112.232 149.62 105.35H124.122V158.533H100.228H76.3352V105.35H50.8365C47.6822 112.232 45.9238 119.887 45.9238 127.953C45.9238 157.944 70.2368 182.257 100.228 182.257Z" fill="#2E3191"/>
<circle id="Head" cx="100.25" cy="93.9011" r="20.2531" fill="#1C9ACC"/>
<path id="Body" d="M120.482 154.892H100.229H79.9756V105.35C79.9756 105.35 85.8801 117.243 100.229 117.243C114.577 117.243 120.482 105.35 120.482 105.35V154.892Z" fill="#1C9ACC"/>
</g>
</svg>
